<svg xmlns="http://www.w3.org/2000/svg" xmlns:xlink="http://www.w3.org/1999/xlink" viewBox="0 0 170 170.15"><defs><style>.cls-1{fill:none;}.cls-2{fill:#5a4980;}.cls-3{fill:#534378;}.cls-4{clip-path:url(#clip-path);}.cls-5{fill:#461811;}.cls-6{fill:#eac8ad;}.cls-7{fill:#f2d7bc;}.cls-8{fill:#eac0a7;}.cls-9{fill:#fff;}.cls-10{fill:#eb1a3a;}.cls-11{fill:#c5132d;}</style><clipPath id="clip-path" transform="translate(0 0)"><circle class="cls-1" cx="85" cy="85" r="85"/></clipPath></defs><title>Asset 11</title><g id="Layer_2" data-name="Layer 2"><g id="Objects"><g id="women_3" data-name="women 3"><path class="cls-2" d="M170,85a85,85,0,1,0-85,85A85,85,0,0,0,170,85Z" transform="translate(0 0)"/><path class="cls-3" d="M170,85A85,85,0,0,0,85,0V170A85,85,0,0,0,170,85Z" transform="translate(0 0)"/><g class="cls-4"><path class="cls-5" d="M52.27,69.85c0,14.24-7.81,14.61-7.25,24,.61,10.44,8.78,10.46,8.78,17.64s-7.51,15.23-.86,22.95H85V47.41Z" transform="translate(0 0)"/><path class="cls-5" d="M117.75,69.85c0,14.24,7.82,14.61,7.26,24-.62,10.44-8.78,10.46-8.78,17.64s7.51,15.23.86,22.95H85V47.41Z" transform="translate(0 0)"/><path class="cls-5" d="M122.37,55.13a37.2,37.2,0,1,0-37.2,37.2A37.19,37.19,0,0,0,122.37,55.13Z" transform="translate(0 0)"/><polygon class="cls-6" points="97.62 134.8 85.01 170.15 72.72 134.8 72.72 107.5 97.62 107.5 97.62 134.8"/><path class="cls-7" d="M85.17,31.85C73.09,31.85,54,38.72,54,70.92c0,18.59,7.25,27.35,9.89,30.72,2.43,3.1,14.9,13.12,21.31,13.12Z" transform="translate(0 0)"/><path class="cls-7" d="M48,78.6c-.53-5.15,1.92-9.71,5.47-10.2s6.87,3.29,7.41,8.43S58.92,86.54,55.36,87,48.49,83.74,48,78.6Z" transform="translate(0 0)"/><path class="cls-8" d="M85.07,31.85c12.09,0,31.2,6.87,31.2,39.07,0,18.59-7.24,27.35-9.88,30.72-2.43,3.1-14.91,13.12-21.32,13.12Z" transform="translate(0 0)"/><path class="cls-8" d="M122.38,78.6c.54-5.15-1.92-9.71-5.47-10.2s-6.87,3.29-7.4,8.43S111.42,86.54,115,87,121.85,83.74,122.38,78.6Z" transform="translate(0 0)"/><path class="cls-6" d="M85,170.15v-34s-9.28-2.3-11.33-9.82a26.63,26.63,0,0,1-1-6.52s-20.31,6.86-24.84,13.94c-3.77,11.23-4.81,36.4-4.81,36.4Z" transform="translate(0 0)"/><path class="cls-6" d="M85,170.15v-34s9.29-2.3,11.34-9.82a26.63,26.63,0,0,0,1-6.52s20.31,6.86,24.84,13.94c3.77,11.23,4.81,36.4,4.81,36.4Z" transform="translate(0 0)"/><path class="cls-9" d="M85.17,103.42c4.71,0,8.53-2.89,8.53-6.46H76.64C76.64,100.53,80.46,103.42,85.17,103.42Z" transform="translate(0 0)"/><path class="cls-10" d="M85,156.86s-8.93-22.38-12.28-37.05c-3.39,1.31-6.16,2.13-8.28,3.23C54.4,144.2,54,170.15,54,170.15H85Z" transform="translate(0 0)"/><path class="cls-11" d="M85.15,156.86s8.94-22.38,12.29-37.05c3.39,1.31,6.16,2.13,8.28,3.23,10,21.16,10.47,47.11,10.47,47.11h-31Z" transform="translate(0 0)"/><path class="cls-5" d="M83.41,22.59c-22.08,0-28.79,19.35-28.79,28.26-8,11.13.72,21.09,6.9,24.59V70c0-7.2,6.84-13.86,17.12-12.75,9.22,1,15-4.22,19.92-13.07C104.61,32.28,97.06,22.59,83.41,22.59Z" transform="translate(0 0)"/><path class="cls-5" d="M97.62,40.5s5.16,21,19.29,27.9c2.52-18.83,4-14.87,0-24.78S97.62,26.33,97.62,26.33Z" transform="translate(0 0)"/></g></g></g></g></svg>