<svg xmlns="http://www.w3.org/2000/svg" xmlns:xlink="http://www.w3.org/1999/xlink" viewBox="0 0 170 170"><defs><style>.cls-1{fill:none;}.cls-2{fill:#f6a100;}.cls-3{fill:#ed9a00;}.cls-4{clip-path:url(#clip-path);}.cls-5{fill:#d9a78c;}.cls-6{fill:#c0d0d8;}.cls-7{fill:#a7bdc8;}.cls-8{fill:#14a89a;}.cls-9{fill:#eac0a7;}.cls-10{fill:#f2d7bc;}.cls-11{fill:#fff;}.cls-12{fill:#7f97a3;}.cls-13{fill:#8b5f3c;}</style><clipPath id="clip-path" transform="translate(0 0)"><circle class="cls-1" cx="85" cy="85" r="85" transform="translate(-12.5 14.69) rotate(-9.2)"/></clipPath></defs><title>Asset 4</title><g id="Layer_2" data-name="Layer 2"><g id="Objects"><g id="men_2" data-name="men 2"><path class="cls-2" d="M170,85a85,85,0,1,0-85,85A85,85,0,0,0,170,85Z" transform="translate(0 0)"/><path class="cls-3" d="M170,85A85,85,0,0,0,85,0V170A85,85,0,0,0,170,85Z" transform="translate(0 0)"/><g class="cls-4"><rect class="cls-5" x="72.55" y="106.44" width="24.89" height="27.29"/><path class="cls-6" d="M69.53,122.7s-23.66,3.46-27.16,7.1C39.33,133,33,163.34,31.54,170H85V124Z" transform="translate(0 0)"/><path class="cls-7" d="M100.46,122.7s23.67,3.46,27.17,7.1c3,3.17,9.37,33.54,10.83,40.2H85V124Z" transform="translate(0 0)"/><polygon class="cls-8" points="83.39 128.5 80.24 160.91 85 169.88 89.76 160.91 86.61 128.5 83.39 128.5"/><path class="cls-8" d="M89.25,128.23,85,132.48l-4.25-4.25L85,124Z" transform="translate(0 0)"/><path class="cls-9" d="M85,28.33c12.09,0,31.2,6.88,31.2,39.07,0,18.59-6.06,30.77-8.7,34.14-2.43,3.1-16.09,9.7-22.5,9.7Z" transform="translate(0 0)"/><path class="cls-9" d="M122.21,75.08c.53-5.15-1.92-9.71-5.47-10.2s-6.87,3.29-7.41,8.43,1.92,9.71,5.48,10.2S121.68,80.22,122.21,75.08Z" transform="translate(0 0)"/><path class="cls-10" d="M85,28.33c-12.09,0-31.2,6.88-31.2,39.07,0,18.59,6.06,30.77,8.7,34.14,2.43,3.1,16.09,9.7,22.5,9.7Z" transform="translate(0 0)"/><path class="cls-10" d="M47.79,75.08c-.53-5.15,1.92-9.71,5.47-10.2s6.87,3.29,7.41,8.43S58.75,83,55.19,83.51,48.32,80.22,47.79,75.08Z" transform="translate(0 0)"/><polygon class="cls-11" points="85 123.99 72.36 118.91 69.25 122.07 75.54 136.01 85 123.99"/><polygon class="cls-11" points="85 123.99 97.64 118.91 100.75 122.07 94.46 136.01 85 123.99"/><rect class="cls-12" x="57.62" y="156.14" width="15.77" height="3.48"/><rect class="cls-12" x="96.62" y="156.14" width="15.77" height="3.48"/><path class="cls-13" d="M58,75.64h2.16s-1.31-8.38,2.53-11.09V59.14s-1.48-.18-1.48-6.55S68.76,41.67,85,41.67V22.1S52.89,25.57,52.89,48.87v16a5.44,5.44,0,0,1,4,1C58.71,67.4,58,75.64,58,75.64Z" transform="translate(0 0)"/><path class="cls-13" d="M111.74,75.64h-2.15s1.31-8.38-2.54-11.09V59.14s1.49-.18,1.49-6.55-7.6-10.92-23.84-10.92V22.1s32.11,3.47,32.11,26.77v16a5.43,5.43,0,0,0-4,1C111,67.4,111.74,75.64,111.74,75.64Z" transform="translate(0 0)"/><path class="cls-11" d="M85,97.38c5.63,0,10.2-1.87,10.2-4.16H74.8C74.8,95.51,79.37,97.38,85,97.38Z" transform="translate(0 0)"/></g></g></g></g></svg>