<svg xmlns="http://www.w3.org/2000/svg" xmlns:xlink="http://www.w3.org/1999/xlink" viewBox="0 0 170 170"><defs><style>.cls-1{fill:none;}.cls-2{fill:#f6a100;}.cls-3{fill:#ed9a00;}.cls-4{clip-path:url(#clip-path);}.cls-5{fill:#d9a78c;}.cls-6{fill:#c74043;}.cls-7{fill:#eac0a7;}.cls-8{fill:#f2d7bc;}.cls-9{fill:#fff;}.cls-10{fill:#553828;}.cls-11{fill:#0f958c;}</style><clipPath id="clip-path"><circle class="cls-1" cx="85" cy="85" r="85" transform="translate(-25.95 131.27) rotate(-67.64)"/></clipPath></defs><title>Asset 8</title><g id="Layer_2" data-name="Layer 2"><g id="Objects"><g id="men_5" data-name="men 5"><path class="cls-2" d="M170,85a85,85,0,1,0-85,85A85,85,0,0,0,170,85Z"/><path class="cls-3" d="M170,85A85,85,0,0,0,85,0V170A85,85,0,0,0,170,85Z"/><g class="cls-4"><rect class="cls-5" x="72.87" y="106.44" width="24.89" height="27.29"/><path class="cls-6" d="M97.61,121h4.24c7.91,2,16.56,3.48,22.32,10.15C127.76,135.27,134,170,134,170H85.16V130.68C92,130.68,97.61,126.33,97.61,121Z"/><path class="cls-6" d="M72.71,121H68.47c-7.9,2-16.57,3.48-22.33,10.15C42.56,135.27,36.32,170,36.32,170H85.16V130.68C78.28,130.68,72.71,126.33,72.71,121Z"/><path class="cls-7" d="M85.32,28.33c12.08,0,31.19,6.87,31.19,39.07,0,18.59-6.06,30.77-8.7,34.14-2.43,3.1-16.09,9.7-22.49,9.7Z"/><path class="cls-7" d="M122.53,75.08c.53-5.15-1.92-9.71-5.48-10.2s-6.87,3.29-7.4,8.43,1.92,9.71,5.47,10.2S122,80.22,122.53,75.08Z"/><path class="cls-8" d="M85.32,28.33c-12.09,0-31.2,6.87-31.2,39.07,0,18.59,6.06,30.77,8.7,34.14,2.43,3.1,16.09,9.7,22.5,9.7Z"/><path class="cls-8" d="M48.1,75.08c-.53-5.15,1.92-9.71,5.48-10.2s6.87,3.29,7.4,8.43S59.06,83,55.51,83.51,48.64,80.22,48.1,75.08Z"/><path class="cls-9" d="M85.32,99.1c5.63,0,10.2-1.87,10.2-4.16H75.12C75.12,97.23,79.68,99.1,85.32,99.1Z"/><path class="cls-10" d="M110.46,70c1.3-3.32,3.87-5.44,6.59-5.07h0a20.22,20.22,0,0,0,0-13.17c-9-25.63,1.22-30.2,1.22-30.2s-10-.45-17.67,5.94c5.32-8.25,7.72-10.38,7.72-10.38s-11.18-2.4-23.16,9.85a34.21,34.21,0,0,1,5.85-10s-25,.19-34.08,18.3c-5.16,10.32-5.56,21.49-4.31,29.94a4.41,4.41,0,0,1,.95-.24,4.89,4.89,0,0,1,3.36.82V57.81c4.8-2.13,9.85-4.8,9.59-15.45h35.14s-.8,12,8.79,14.91Z"/><path class="cls-11" d="M85.16,133.83c9.22,0,16.69-5.76,16.69-12.87H97.58c0,5.36-5.56,9.7-12.42,9.72S72.75,126.32,72.75,121H68.47C68.47,128.07,76,133.83,85.16,133.83Z"/></g></g></g></g></svg>