<svg xmlns="http://www.w3.org/2000/svg" xmlns:xlink="http://www.w3.org/1999/xlink" viewBox="0 0 170 170.15"><defs><style>.cls-1{fill:none;}.cls-2{fill:#29a69c;}.cls-3{fill:#27a096;}.cls-4{clip-path:url(#clip-path);}.cls-5{fill:#61402f;}.cls-6{fill:#eac8ad;}.cls-7{fill:#f2d7bc;}.cls-8{fill:#eac0a7;}.cls-9{fill:#fff;}.cls-10{fill:#90c53f;}.cls-11{fill:#5fa63c;}</style><clipPath id="clip-path" transform="translate(0 0)"><circle class="cls-1" cx="85" cy="85" r="85" transform="translate(-25.96 131.24) rotate(-67.62)"/></clipPath></defs><title>Asset 10</title><g id="Layer_2" data-name="Layer 2"><g id="Objects"><g id="women_4" data-name="women 4"><path class="cls-2" d="M170,85a85,85,0,1,0-85,85A85,85,0,0,0,170,85Z" transform="translate(0 0)"/><path class="cls-3" d="M170,85A85,85,0,0,0,85,0V170A85,85,0,0,0,170,85Z" transform="translate(0 0)"/><g class="cls-4"><path class="cls-5" d="M122.36,55.13a37.2,37.2,0,1,0-37.2,37.2A37.2,37.2,0,0,0,122.36,55.13Z" transform="translate(0 0)"/><polygon class="cls-6" points="97.6 134.79 85 170.15 72.71 134.79 72.71 107.5 97.6 107.5 97.6 134.79"/><path class="cls-7" d="M85.16,31.85C73.07,31.85,54,38.72,54,70.92c0,18.59,7.24,27.35,9.88,30.72,2.44,3.1,14.91,13.12,21.32,13.12Z" transform="translate(0 0)"/><path class="cls-7" d="M48,78.6c-.54-5.15,1.91-9.71,5.47-10.2s6.87,3.29,7.4,8.43S58.91,86.54,55.35,87,48.48,83.74,48,78.6Z" transform="translate(0 0)"/><path class="cls-8" d="M85.06,31.85c12.08,0,31.2,6.87,31.2,39.07,0,18.59-7.25,27.35-9.89,30.72-2.43,3.1-14.9,13.12-21.31,13.12Z" transform="translate(0 0)"/><path class="cls-8" d="M122.37,78.6c.53-5.15-1.92-9.71-5.47-10.2s-6.88,3.29-7.41,8.43S111.41,86.54,115,87,121.84,83.74,122.37,78.6Z" transform="translate(0 0)"/><path class="cls-5" d="M84.75,24.05a17.51,17.51,0,0,0-1.84-.13S62.5,25.45,56.82,52c-2.73,2.05-7.73,10-1.14,18.86.91-7.5,3.66-12.93,8.41-15,8.43-3.66,11.9-.26,21.68-7.75C91.47,43.77,93.52,35,92.26,30A9,9,0,0,0,84.75,24.05Z" transform="translate(0 0)"/><path class="cls-5" d="M91,31.44s-7.36,27.45,24.77,39C123.44,45.26,109.38,28.87,91,31.44Z" transform="translate(0 0)"/><path class="cls-6" d="M85,170.15v-34s-9.29-2.3-11.33-9.82a26.39,26.39,0,0,1-1-6.52s-20.3,6.86-24.84,13.94c-3.77,11.23-4.8,36.4-4.8,36.4Z" transform="translate(0 0)"/><path class="cls-6" d="M85,170.15v-34s9.29-2.3,11.33-9.82a26.39,26.39,0,0,0,1-6.52s20.3,6.86,24.84,13.94c3.77,11.23,4.8,36.4,4.8,36.4Z" transform="translate(0 0)"/><path class="cls-9" d="M85.16,103.42c4.71,0,8.53-2.89,8.53-6.46H76.63C76.63,100.53,80.45,103.42,85.16,103.42Z" transform="translate(0 0)"/><path class="cls-5" d="M96.9,17.93A11.75,11.75,0,1,0,85.16,29.67,11.75,11.75,0,0,0,96.9,17.93Z" transform="translate(0 0)"/><path class="cls-10" d="M85,144.71c-10.39,0-18.84-9.94-19.07-22.31a54.39,54.39,0,0,0-8.84,4.17c-.36,2.49-3.11,9.36-4.39,19.71-1.26,10.19,1.7,23.87,1.7,23.87H85Z" transform="translate(0 0)"/><path class="cls-11" d="M85,144.71c10.39,0,18.84-9.94,19.07-22.31a54.39,54.39,0,0,1,8.84,4.17c.36,2.49,3.11,9.36,4.39,19.71,1.26,10.19-1.7,23.87-1.7,23.87H85Z" transform="translate(0 0)"/></g></g></g></g></svg>