<svg xmlns="http://www.w3.org/2000/svg" xmlns:xlink="http://www.w3.org/1999/xlink" viewBox="0 0 170 170.15"><defs><style>.cls-1{fill:none;}.cls-2{fill:#6c9625;}.cls-3{fill:#678e23;}.cls-4{clip-path:url(#clip-path);}.cls-5{fill:#461811;}.cls-6{fill:#eac8ad;}.cls-7{fill:#f2d7bc;}.cls-8{fill:#eac0a7;}.cls-9{fill:#fff;}.cls-10{fill:#71b6e7;}.cls-11{fill:#5eacdd;}</style><clipPath id="clip-path" transform="translate(0 0)"><circle class="cls-1" cx="85" cy="85" r="85" transform="translate(-0.63 169.36) rotate(-89.57)"/></clipPath></defs><title>Asset 12</title><g id="Layer_2" data-name="Layer 2"><g id="Objects"><g id="women_2" data-name="women 2"><circle class="cls-2" cx="85" cy="85" r="85"/><path class="cls-3" d="M170,85A85,85,0,0,0,85,0V170A85,85,0,0,0,170,85Z" transform="translate(0 0)"/><g class="cls-4"><path class="cls-5" d="M121.47,87.79c0,20.14-16.33,9.69-36.47,9.69h0c-20.14,0-36.47,10.45-36.47-9.69v-33A36.47,36.47,0,0,1,85,18.35h0a36.47,36.47,0,0,1,36.47,36.47Z" transform="translate(0 0)"/><path class="cls-5" d="M122.36,55.13a37.2,37.2,0,1,0-37.2,37.2A37.2,37.2,0,0,0,122.36,55.13Z" transform="translate(0 0)"/><polygon class="cls-6" points="97.6 134.79 85 170.15 72.71 134.79 72.71 107.5 97.6 107.5 97.6 134.79"/><path class="cls-7" d="M85.16,31.85C73.07,31.85,54,38.72,54,70.92c0,18.59,7.24,27.35,9.88,30.72,2.43,3.1,14.91,13.12,21.32,13.12Z" transform="translate(0 0)"/><path class="cls-7" d="M48,78.6c-.54-5.15,1.91-9.71,5.47-10.2s6.87,3.29,7.4,8.43S58.91,86.54,55.35,87,48.48,83.74,48,78.6Z" transform="translate(0 0)"/><path class="cls-8" d="M85.06,31.85c12.08,0,31.2,6.87,31.2,39.07,0,18.59-7.25,27.35-9.89,30.72-2.43,3.1-14.9,13.12-21.31,13.12Z" transform="translate(0 0)"/><path class="cls-8" d="M122.37,78.6c.53-5.15-1.92-9.71-5.47-10.2s-6.88,3.29-7.41,8.43S111.41,86.54,115,87,121.84,83.74,122.37,78.6Z" transform="translate(0 0)"/><path class="cls-6" d="M85,170.15v-34s-9.29-2.3-11.33-9.82a26.39,26.39,0,0,1-1-6.52s-20.3,6.86-24.84,13.94c-3.77,11.23-4.8,36.4-4.8,36.4Z" transform="translate(0 0)"/><path class="cls-6" d="M85,170.15v-34s9.29-2.3,11.33-9.82a26.39,26.39,0,0,0,1-6.52s20.3,6.86,24.84,13.94c3.77,11.23,4.8,36.4,4.8,36.4Z" transform="translate(0 0)"/><path class="cls-9" d="M85.16,103.42c4.71,0,8.53-2.89,8.53-6.46H76.63C76.63,100.53,80.45,103.42,85.16,103.42Z" transform="translate(0 0)"/><path class="cls-5" d="M83.4,22.59c-22.09,0-28.8,19.35-28.8,28.26-8,11.13.72,21.09,6.9,24.59V70c0-7.2,6.85-13.86,17.13-12.75,9.21,1,15-4.22,19.92-13.07C104.6,32.28,97.05,22.59,83.4,22.59Z" transform="translate(0 0)"/><path class="cls-5" d="M97.6,40.5s5.16,21,19.3,27.9c2.51-18.83,4-14.87,0-24.78S97.6,26.33,97.6,26.33Z" transform="translate(0 0)"/><path class="cls-10" d="M85,170.15V141.56L72.71,119.81s-20.3,6.86-24.84,13.94c-3.77,11.23-4.8,36.4-4.8,36.4Z" transform="translate(0 0)"/><path class="cls-11" d="M85,170.15V141.56l12.29-21.75s20.3,6.86,24.84,13.94c3.77,11.23,4.8,36.4,4.8,36.4Z" transform="translate(0 0)"/><polygon class="cls-9" points="85 141.56 72.71 119.81 61.42 123.42 71.03 144.98 85 141.56"/><polygon class="cls-9" points="85 141.56 97.29 119.81 108.58 123.42 98.97 144.98 85 141.56"/></g></g></g></g></svg>