<svg xmlns="http://www.w3.org/2000/svg" xmlns:xlink="http://www.w3.org/1999/xlink" viewBox="0 0 170 170.15"><defs><style>.cls-1{fill:none;}.cls-2{fill:#29a69c;}.cls-3{fill:#27a096;}.cls-4{clip-path:url(#clip-path);}.cls-5{fill:#482b1b;}.cls-6{fill:#eac8ad;}.cls-7{fill:#f2d7bc;}.cls-8{fill:#eac0a7;}.cls-9{fill:#fff;}.cls-10{fill:#faa21c;}.cls-11{fill:#f68e1f;}.cls-12{fill:#39b54a;}</style><clipPath id="clip-path" transform="translate(0 0)"><circle class="cls-1" cx="85" cy="85" r="85"/></clipPath></defs><title>Asset 14</title><g id="Layer_2" data-name="Layer 2"><g id="Objects"><g id="women_1" data-name="women 1"><circle class="cls-2" cx="85" cy="85" r="85"/><path class="cls-3" d="M170,85A85,85,0,0,0,85,0V170A85,85,0,0,0,170,85Z" transform="translate(0 0)"/><g id="women_1-2" data-name="women 1"><g class="cls-4"><path class="cls-5" d="M122.2,55.13A37.2,37.2,0,1,0,85,92.33,37.19,37.19,0,0,0,122.2,55.13Z" transform="translate(0 0)"/><polygon class="cls-6" points="97.45 134.79 84.85 170.15 72.56 134.79 72.56 107.5 97.45 107.5 97.45 134.79"/><path class="cls-7" d="M85,31.85c-12.08,0-31.2,6.87-31.2,39.07,0,18.59,7.25,27.35,9.89,30.72,2.43,3.1,14.9,13.12,21.31,13.12Z" transform="translate(0 0)"/><path class="cls-7" d="M47.79,78.6c-.53-5.15,1.92-9.71,5.47-10.2s6.88,3.29,7.41,8.43S58.75,86.54,55.19,87,48.32,83.74,47.79,78.6Z" transform="translate(0 0)"/><path class="cls-8" d="M84.9,31.85c12.09,0,31.2,6.87,31.2,39.07,0,18.59-7.24,27.35-9.88,30.72-2.43,3.1-14.91,13.12-21.32,13.12Z" transform="translate(0 0)"/><path class="cls-8" d="M122.21,78.6c.54-5.15-1.91-9.71-5.47-10.2s-6.87,3.29-7.4,8.43,1.91,9.71,5.47,10.2S121.68,83.74,122.21,78.6Z" transform="translate(0 0)"/><path class="cls-6" d="M84.85,170.15v-34s-9.29-2.3-11.34-9.82a26.63,26.63,0,0,1-1-6.52s-20.31,6.86-24.84,13.94c-3.77,11.23-4.81,36.4-4.81,36.4Z" transform="translate(0 0)"/><path class="cls-6" d="M84.85,170.15v-34s9.28-2.3,11.33-9.82a26.63,26.63,0,0,0,.95-6.52s20.31,6.86,24.84,13.94c3.77,11.23,4.81,36.4,4.81,36.4Z" transform="translate(0 0)"/><path class="cls-6" d="M84.85,170.15v-34s-9.29-2.3-11.34-9.82a26.63,26.63,0,0,1-1-6.52s-20.31,6.86-24.84,13.94c-3.77,11.23-4.81,36.4-4.81,36.4Z" transform="translate(0 0)"/><path class="cls-6" d="M84.85,170.15v-34s9.28-2.3,11.33-9.82a26.63,26.63,0,0,0,.95-6.52s20.31,6.86,24.84,13.94c3.77,11.23,4.81,36.4,4.81,36.4Z" transform="translate(0 0)"/><path class="cls-9" d="M85,103.42c4.71,0,8.53-2.89,8.53-6.46H76.47C76.47,100.53,80.29,103.42,85,103.42Z" transform="translate(0 0)"/><path class="cls-5" d="M83.24,22.59c-22.08,0-28.79,19.35-28.79,28.26-8,11.13.72,21.09,6.9,24.59V70c0-7.2,6.84-13.86,17.13-12.75,9.21,1,15-4.22,19.91-13.07C104.45,32.28,96.89,22.59,83.24,22.59Z" transform="translate(0 0)"/><path class="cls-5" d="M97.45,40.5s5.16,21,19.29,27.9c2.52-18.83,4-14.87,0-24.78S97.45,26.33,97.45,26.33Z" transform="translate(0 0)"/><path class="cls-10" d="M122,133.75c-3.78-5.91-18.53-11.65-23.32-13.4a13.82,13.82,0,0,1-27.61,0c-4.79,1.75-19.54,7.49-23.32,13.4-3.77,11.23-4.81,36.4-4.81,36.4h83.87S125.74,145,122,133.75Z" transform="translate(0 0)"/><path class="cls-11" d="M126.78,170.15s-1-25.17-4.81-36.4c-3.78-5.91-18.53-11.65-23.32-13.4a13.81,13.81,0,0,1-13.8,13.28v36.52Z" transform="translate(0 0)"/><path class="cls-12" d="M66.48,122.11a18.59,18.59,0,0,0,36.73,0c-1.87-.76-3.47-1.36-4.56-1.76a13.82,13.82,0,0,1-27.61,0C70,120.75,68.35,121.35,66.48,122.11Z" transform="translate(0 0)"/><path class="cls-5" d="M97.45,17.93A12.45,12.45,0,1,0,85,30.38,12.44,12.44,0,0,0,97.45,17.93Z" transform="translate(0 0)"/></g></g></g></g></g></svg>