<svg xmlns="http://www.w3.org/2000/svg" xmlns:xlink="http://www.w3.org/1999/xlink" viewBox="0 0 170 170"><defs><style>.cls-1{fill:none;}.cls-2{fill:#b5332b;}.cls-3{fill:#a22d26;}.cls-4{clip-path:url(#clip-path);}.cls-5{fill:#d9a78c;}.cls-6{fill:#c0d4df;}.cls-7{fill:#eac0a7;}.cls-8{fill:#f2d7bc;}.cls-9{fill:#cfe1eb;}.cls-10{fill:#fff;}.cls-11{fill:#8b5f3c;}</style><clipPath id="clip-path" transform="translate(0 0)"><path class="cls-1" d="M170,85a85,85,0,1,0-85,85A85,85,0,0,0,170,85Z"/></clipPath></defs><title>Asset 6</title><g id="Layer_2" data-name="Layer 2"><g id="Objects"><g id="men_1" data-name="men 1"><path class="cls-2" d="M170,85a85,85,0,1,0-85,85A85,85,0,0,0,170,85Z" transform="translate(0 0)"/><path class="cls-3" d="M170,85A85,85,0,0,0,85,0V170A85,85,0,0,0,170,85Z" transform="translate(0 0)"/><g class="cls-4"><rect class="cls-5" x="72.55" y="106.43" width="24.89" height="27.29"/><path class="cls-6" d="M100.46,122.7s23.67,3.46,27.17,7.1c3,3.17,9.37,33.54,10.83,40.2H85V124Z" transform="translate(0 0)"/><path class="cls-7" d="M85,28.33c12.09,0,31.2,6.88,31.2,39.07,0,18.59-6.06,30.77-8.7,34.14-2.43,3.1-16.09,9.7-22.5,9.7Z" transform="translate(0 0)"/><path class="cls-7" d="M122.21,75.08c.53-5.15-1.92-9.71-5.47-10.2s-6.87,3.29-7.41,8.43,1.92,9.71,5.48,10.2S121.68,80.22,122.21,75.08Z" transform="translate(0 0)"/><path class="cls-8" d="M85,28.33c-12.09,0-31.2,6.88-31.2,39.07,0,18.59,6.06,30.77,8.7,34.14,2.43,3.1,16.09,9.7,22.5,9.7Z" transform="translate(0 0)"/><path class="cls-8" d="M47.79,75.08c-.53-5.15,1.92-9.71,5.47-10.2s6.87,3.29,7.41,8.43S58.75,83,55.19,83.51,48.32,80.22,47.79,75.08Z" transform="translate(0 0)"/><path class="cls-9" d="M69.53,122.7s-23.66,3.46-27.16,7.1C39.33,133,33,163.34,31.54,170H85V124Z" transform="translate(0 0)"/><polygon class="cls-10" points="85 123.99 72.36 118.9 69.25 122.06 75.54 136.01 85 123.99"/><polygon class="cls-10" points="85 123.99 97.64 118.9 100.75 122.06 94.46 136.01 85 123.99"/><path class="cls-11" d="M116.88,65.64S127.11,19,84.79,19C42.24,19,52.92,64.36,52.92,64.36S58.73,61,58.73,75.91H59.8A168.35,168.35,0,0,0,62.49,57c15,0,28.19-1.92,39.32-11.13,6.31,0,7.17,7.87,7.17,13.89l-2.76,1.07s2.68,5.25,2.87,15.09H111S110.72,59.49,116.88,65.64Z" transform="translate(0 0)"/><path class="cls-10" d="M85,99.1c5.63,0,10.2-1.87,10.2-4.16H74.8C74.8,97.23,79.37,99.1,85,99.1Z" transform="translate(0 0)"/></g></g></g></g></svg>