<svg xmlns="http://www.w3.org/2000/svg" xmlns:xlink="http://www.w3.org/1999/xlink" viewBox="0 0 170 170"><defs><style>.cls-1{fill:none;}.cls-2{fill:#6c9625;}.cls-3{fill:#678e23;}.cls-4{clip-path:url(#clip-path);}.cls-5{fill:#2d404e;}.cls-6{fill:#d9a78c;}.cls-7{fill:#eac0a7;}.cls-8{fill:#f2d7bc;}.cls-9{fill:#e6e7e8;}.cls-10{fill:#344650;}.cls-11{fill:#b9c7d0;}.cls-12{fill:#b63c40;}.cls-13{fill:#222b30;}.cls-14{fill:#fff;}.cls-15{fill:#5c2f12;}</style><clipPath id="clip-path" transform="translate(0 0)"><circle class="cls-1" cx="85" cy="85" r="85" transform="translate(-25.96 131.24) rotate(-67.62)"/></clipPath></defs><title>Asset 7</title><g id="Layer_2" data-name="Layer 2"><g id="Objects"><g id="men_4" data-name="men 4"><path class="cls-2" d="M170,85a85,85,0,1,0-85,85A85,85,0,0,0,170,85Z" transform="translate(0 0)"/><path class="cls-3" d="M170,85A85,85,0,0,0,85,0V170A85,85,0,0,0,170,85Z" transform="translate(0 0)"/><g class="cls-4"><path class="cls-5" d="M100.62,122.7s23.67,3.46,27.17,7.1c3,3.17,9.37,33.54,10.83,40.2H85.16V124Z" transform="translate(0 0)"/><rect class="cls-6" x="72.71" y="106.44" width="24.89" height="27.29"/><path class="cls-7" d="M85.16,28.34c12.08,0,31.2,6.87,31.2,39.06,0,18.59-6.06,30.77-8.7,34.14-2.43,3.1-16.09,9.7-22.5,9.7Z" transform="translate(0 0)"/><path class="cls-7" d="M122.37,75.08c.53-5.15-1.92-9.71-5.47-10.2s-6.88,3.29-7.41,8.43S111.41,83,115,83.51,121.84,80.22,122.37,75.08Z" transform="translate(0 0)"/><path class="cls-8" d="M85.16,28.34C73.07,28.34,54,35.21,54,67.4,54,86,60,98.17,62.66,101.54c2.43,3.1,16.09,9.7,22.5,9.7Z" transform="translate(0 0)"/><path class="cls-8" d="M48,75.08c-.54-5.15,1.91-9.71,5.47-10.2s6.87,3.29,7.41,8.43S58.91,83,55.35,83.51,48.48,80.22,48,75.08Z" transform="translate(0 0)"/><path class="cls-9" d="M68.88,35.07s-10.56,12.52-6.51,24.2C63,73.2,61.69,77.91,57.2,81.73c1.12-13.48-.22-18-5.16-16.4C50,54.78,54.37,26.34,68.88,35.07Z" transform="translate(0 0)"/><path class="cls-9" d="M101.35,35.07s10.56,12.52,6.52,24.2c-.68,13.93.67,18.64,5.16,22.46-1.12-13.48.23-18,5.17-16.4C120.22,54.78,115.86,26.34,101.35,35.07Z" transform="translate(0 0)"/><path class="cls-10" d="M69.69,122.7S46,126.16,42.53,129.8c-3,3.17-9.37,33.54-10.84,40.2H85.16V124Z" transform="translate(0 0)"/><polyline class="cls-11" points="100.91 122.07 85.16 123.99 69.41 122.07 85.16 170"/><polygon class="cls-12" points="83.55 128.62 80.4 161.03 85.16 170 89.91 161.03 86.77 128.62 83.55 128.62"/><path class="cls-13" d="M73.8,142.76,61.27,124.18a61.28,61.28,0,0,1,11-2.81L85.16,170l-18.1-25.91Z" transform="translate(0 0)"/><path class="cls-13" d="M96.52,142.76,109,124.18a61.28,61.28,0,0,0-11-2.81L85.16,170l18.09-25.91Z" transform="translate(0 0)"/><path class="cls-12" d="M89.41,128.35l-4.25,4.25-4.25-4.25,4.25-4.25Z" transform="translate(0 0)"/><polygon class="cls-14" points="85.16 123.99 72.52 118.91 69.41 122.07 75.69 136.01 85.16 123.99"/><polygon class="cls-14" points="85.16 123.99 97.79 118.91 100.91 122.07 94.62 136.01 85.16 123.99"/><polygon class="cls-15" points="85.3 91.36 85.3 94.39 76.06 96.38 74.14 96.38 85.3 91.36"/><polygon class="cls-15" points="85.2 91.36 85.2 94.39 94.44 96.38 96.36 96.38 85.2 91.36"/></g></g></g></g></svg>