<svg xmlns="http://www.w3.org/2000/svg" xmlns:xlink="http://www.w3.org/1999/xlink" viewBox="0 0 170 170"><defs><style>.cls-1{fill:none;}.cls-2{fill:#827977;}.cls-3{fill:#7b7270;}.cls-4{fill:#29a69c;}.cls-5{clip-path:url(#clip-path);}.cls-6{fill:#d9a78c;}.cls-7{fill:#f1f2f2;}.cls-8{fill:#e6e7e8;}.cls-9{fill:#eac0a7;}.cls-10{fill:#f2d7bc;}.cls-11{fill:#2f343a;}.cls-12{fill:#a0b2be;}.cls-13{fill:#fff;}</style><clipPath id="clip-path"><path class="cls-1" d="M170,85a85,85,0,1,0-85,85A85,85,0,0,0,170,85Z"/></clipPath></defs><title>Asset 3</title><g id="Layer_2" data-name="Layer 2"><g id="Objects"><g id="men_6" data-name="men 6"><circle class="cls-2" cx="85" cy="85" r="85" transform="translate(-27.13 128.33) rotate(-66.13)"/><path class="cls-3" d="M170,85A85,85,0,0,0,85,0V170A85,85,0,0,0,170,85Z"/><path class="cls-4" d="M170,85a85,85,0,1,0-85,85A85,85,0,0,0,170,85Z"/><g class="cls-5"><polygon class="cls-6" points="97.45 133.73 85.3 163.22 72.55 133.73 72.55 106.44 97.45 106.44 97.45 133.73"/><path class="cls-7" d="M72.55,122.7s-26.68,3.46-30.18,7.1C39.33,133,33,163.34,31.54,170H85V154Z"/><path class="cls-8" d="M97.45,122.7s26.68,3.46,30.18,7.1c3,3.17,9.37,33.54,10.83,40.2H85V154Z"/><path class="cls-9" d="M85,28.33c12.08,0,31.2,6.87,31.2,39.07,0,18.59-6.06,30.77-8.7,34.14-2.43,3.1-16.09,9.7-22.5,9.7Z"/><path class="cls-9" d="M122.21,75.08c.53-5.15-1.92-9.71-5.47-10.2s-6.87,3.29-7.41,8.43,1.92,9.71,5.48,10.2S121.68,80.22,122.21,75.08Z"/><path class="cls-10" d="M85,28.33c-12.09,0-31.2,6.87-31.2,39.07,0,18.59,6.06,30.77,8.7,34.14,2.43,3.1,16.09,9.7,22.5,9.7Z"/><path class="cls-10" d="M47.79,75.08c-.54-5.15,1.92-9.71,5.47-10.2s6.87,3.29,7.41,8.43S58.75,83,55.19,83.51,48.32,80.22,47.79,75.08Z"/><path class="cls-11" d="M58,75.64h2.16s-1.31-8.38,2.53-11.09V59.13s-1.48-.17-1.48-6.54S68.75,41.67,85,41.67V18.35s-32.11.68-32.11,24V64.9a5.39,5.39,0,0,1,4,1C58.71,67.4,58,75.64,58,75.64Z"/><path class="cls-11" d="M112,75.64h-2.15s1.31-8.38-2.53-11.09V59.13s1.48-.17,1.48-6.54S101.24,41.67,85,41.67V18.35s32.11-.74,32.11,22.57v24a5.39,5.39,0,0,0-4,1C111.29,67.4,112,75.64,112,75.64Z"/><polygon class="cls-12" points="85 153.99 76.54 125.09 73.42 138.11 85 153.99"/><polygon class="cls-13" points="72.2 119.71 76.64 125.48 73.42 138.11 66.6 128.91 72.2 119.71"/><polygon class="cls-12" points="85 153.99 92.66 124.75 96.58 138.11 85 153.99"/><polygon class="cls-13" points="97.8 119.71 92.56 125.14 96.58 138.11 104 128.91 97.8 119.71"/><path class="cls-13" d="M85,97.38c5.63,0,10.2-1.86,10.2-4.16H74.8C74.8,95.52,79.36,97.38,85,97.38Z"/></g></g></g></g></svg>