<svg xmlns="http://www.w3.org/2000/svg" xmlns:xlink="http://www.w3.org/1999/xlink" viewBox="0 0 170 170.15"><defs><style>.cls-1{fill:none;}.cls-2{fill:#5a4980;}.cls-3{fill:#534378;}.cls-4{clip-path:url(#clip-path);}.cls-5{fill:#461811;}.cls-6{fill:#eac8ad;}.cls-7{fill:#f2d7bc;}.cls-8{fill:#eac0a7;}.cls-9{fill:#fff;}.cls-10{fill:#f1f2f2;}.cls-11{fill:#e6e7e8;}</style><clipPath id="clip-path"><path class="cls-1" d="M170,85a85,85,0,1,0-85,85A85,85,0,0,0,170,85Z"/></clipPath></defs><title>Asset 13</title><g id="Layer_2" data-name="Layer 2"><g id="Objects"><g id="women_5" data-name="women 5"><path class="cls-2" d="M170,85a85,85,0,1,0-85,85A85,85,0,0,0,170,85Z"/><path class="cls-3" d="M170,85A85,85,0,0,0,85,0V170A85,85,0,0,0,170,85Z"/><g class="cls-4"><circle class="cls-5" cx="85.16" cy="55.13" r="37.2" transform="translate(-14.04 76.36) rotate(-45)"/><polygon class="cls-6" points="97.61 134.8 85 170.15 72.71 134.8 72.71 107.5 97.61 107.5 97.61 134.8"/><path class="cls-7" d="M85.16,31.85C73.07,31.85,54,38.72,54,70.92c0,18.59,7.24,27.35,9.89,30.72,2.43,3.1,14.9,13.12,21.31,13.12Z"/><path class="cls-7" d="M48,78.6c-.54-5.15,1.92-9.71,5.47-10.2s6.87,3.29,7.4,8.43S58.91,86.54,55.35,87,48.48,83.74,48,78.6Z"/><path class="cls-8" d="M85.06,31.85c12.09,0,31.2,6.87,31.2,39.07,0,18.59-7.25,27.35-9.89,30.72-2.43,3.1-14.9,13.12-21.31,13.12Z"/><path class="cls-8" d="M122.37,78.6c.53-5.15-1.92-9.71-5.47-10.2s-6.87,3.29-7.41,8.43S111.41,86.54,115,87,121.84,83.74,122.37,78.6Z"/><path class="cls-6" d="M85,170.15v-34s-9.29-2.3-11.33-9.82a26.39,26.39,0,0,1-1-6.52s-20.3,6.86-24.84,13.94c-3.77,11.23-4.8,36.4-4.8,36.4Z"/><path class="cls-6" d="M85,170.15v-34s9.29-2.3,11.33-9.82a26.39,26.39,0,0,0,1-6.52s20.31,6.86,24.84,13.94c3.77,11.23,4.8,36.4,4.8,36.4Z"/><path class="cls-9" d="M85.16,103.42c4.71,0,8.53-2.89,8.53-6.46H76.63C76.63,100.53,80.45,103.42,85.16,103.42Z"/><path class="cls-5" d="M83.4,22.59c-22.08,0-28.8,19.35-28.8,28.26-8,11.13.72,21.09,6.9,24.59V70c0-7.2,6.85-13.86,17.13-12.76,9.22,1,15-4.21,19.92-13.06C104.6,32.28,97.05,22.59,83.4,22.59Z"/><path class="cls-5" d="M97.6,40.5s5.16,21,19.3,27.9c2.51-18.83,4-14.87,0-24.78S97.6,26.33,97.6,26.33Z"/><path class="cls-10" d="M85,170.15V124.94l-12.29-5.13s-20.3,6.86-24.84,13.94c-3.77,11.23-4.8,36.4-4.8,36.4Z"/><path class="cls-11" d="M85,170.15V124.94l12.29-5.13s20.31,6.86,24.84,13.94c3.77,11.23,4.8,36.4,4.8,36.4Z"/><path class="cls-5" d="M78.18,24.21S59.29-5,36.09,17.7,39.7,82.35,25.72,89c15.26-2,19-23.58,17.53-42.59-1.33-16.81,13.41-24.93,24.88-18C73,31.21,78.18,24.21,78.18,24.21Z"/><polygon class="cls-9" points="85 124.89 72.36 119.81 69.25 122.97 75.54 136.92 85 124.89"/><polygon class="cls-9" points="85 124.89 97.64 119.81 100.75 122.97 94.46 136.92 85 124.89"/></g></g></g></g></svg>